<svg viewBox="0 0 512 512" xmlns="http://www.w3.org/2000/svg"><path d="m436.949219 74.980469c-48.34375-48.351563-112.621094-74.980469-180.988281-74.980469-68.371094 0-132.648438 26.628906-180.992188 74.980469-48.34375 48.351562-74.96875 112.640625-74.96875 181.019531 0 4.144531 3.355469 7.5 7.5 7.5s7.5-3.355469 7.5-7.5c0-64.375 25.0625-124.894531 70.574219-170.414062 45.511719-45.515626 106.023437-70.585938 170.386719-70.585938 64.359374 0 124.871093 25.066406 170.382812 70.585938 45.511719 45.519531 70.574219 106.039062 70.574219 170.414062s-25.0625 124.894531-70.574219 170.414062c-45.511719 45.515626-106.023438 70.585938-170.382812 70.585938-58.390626 0-114.71875-21.152344-158.605469-59.5625-43.480469-38.050781-71.871094-90.34375-79.949219-147.242188-.582031-4.101562-4.382812-6.953124-8.480469-6.371093-4.101562.582031-6.953125 4.378906-6.371093 8.480469 8.582031 60.453124 38.742187 116.003906 84.921874 156.417968 46.625 40.804688 106.457032 63.277344 168.484376 63.277344 68.367187 0 132.644531-26.628906 180.988281-74.980469 48.34375-48.351562 74.96875-112.640625 74.96875-181.019531s-26.625-132.667969-74.96875-181.019531zm0 0"/><path d="m193.34375 157.824219c1.101562-.601563 4.019531-1.78125 7.195312.273437l51.34375 33.230469c3.480469 2.253906 8.121094 1.257813 10.371094-2.21875 2.253906-3.480469 1.257813-8.121094-2.21875-10.371094l-51.347656-33.234375c-6.785156-4.390625-15.414062-4.71875-22.515625-.855468-7.101563 3.863281-11.511719 11.285156-11.511719 19.371093v195.019531c0 8.085938 4.410156 15.507813 11.511719 19.371094 3.296875 1.792969 6.921875 2.683594 10.535156 2.683594 4.175781 0 8.34375-1.1875 11.980469-3.542969l150.660156-97.507812c6.304688-4.082031 10.066406-11.003907 10.066406-18.511719 0-7.511719-3.761718-14.433594-10.066406-18.515625l-67.125-43.445313c-3.480468-2.25-8.121094-1.257812-10.371094 2.222657-2.253906 3.476562-1.257812 8.121093 2.21875 10.371093l67.125 43.445313c2.046876 1.324219 3.222657 3.480469 3.222657 5.917969 0 2.441406-1.175781 4.597656-3.222657 5.921875l-150.65625 97.511719c-3.175781 2.054687-6.09375.875-7.199218.273437-1.105469-.601563-3.679688-2.414063-3.679688-6.195313v-195.019531c0-3.785156 2.574219-5.59375 3.683594-6.195312zm0 0"/></svg>